<?xml version="1.0" encoding="utf-8"?>
<svg viewBox="0 0 500 500" width="500" height="500" xmlns="http://www.w3.org/2000/svg">
  <defs>
    <path id="text-path-0" d="M 42.111 283.669 C 346.536 172.624 570.816 92.48 40.913 321.946"/>
  </defs>
  <rect x="19.139" y="20.335" width="456.34" height="455.144" style="fill: rgb(255, 234, 0);"/>
  <path d="M 71.459 271.599 L 49.959 279.425 L 18.998 194.365 L 56.891 180.572 Q 69.657 175.925 78.441 176.228 Q 87.226 176.531 93.128 182.295 Q 99.031 188.06 103.384 200.02 Q 107.493 211.307 106.701 219.584 Q 105.91 227.862 99.473 234.009 Q 93.037 240.157 80.271 244.803 L 63.877 250.771 Z M 59.805 199.447 L 46.905 204.142 L 57.47 233.167 L 70.37 228.472 Q 79.911 224.999 81.962 220.6 Q 84.013 216.201 81.078 208.139 Q 78.29 200.479 73.818 198.227 Q 69.346 195.974 59.805 199.447 Z" transform="matrix(1, 0, 0, 1, 21.531099, 1.794258)" style="fill: rgb(51, 51, 51); white-space: pre;"/>
  <path d="M 189.272 208.239 L 195.871 226.533 L 133.994 248.854 L 103.279 163.705 L 124.801 155.942 L 148.917 222.796 Z" transform="matrix(1, 0, 0, 1, 21.531099, 1.794258)" style="fill: rgb(51, 51, 51); white-space: pre;"/>
  <path d="M 220.856 141.212 L 179.457 155.823 L 173.318 138.427 L 241.686 114.298 L 247.159 129.806 L 224.361 196.69 L 224.456 196.96 L 267.877 181.635 L 274.017 199.031 L 201.334 224.683 L 196.336 210.524 L 220.951 141.482 Z" transform="matrix(1, 0, 0, 1, 21.531099, 1.794258)" style="fill: rgb(51, 51, 51); white-space: pre;"/>
  <path d="M 389.543 158.23 L 439.228 233.894 L 406.118 255.636 Q 396.196 262.151 388.443 264.933 Q 380.689 267.715 373.957 266.319 Q 367.224 264.924 360.682 258.87 Q 354.14 252.815 346.684 241.46 Q 338.913 229.626 335.761 220.918 Q 332.609 212.21 333.926 205.358 Q 335.243 198.505 340.877 192.496 Q 346.511 186.487 356.432 179.972 Z M 398.27 237.694 L 409.507 230.316 L 381.014 186.926 L 369.778 194.304 Q 362.845 198.856 359.861 203.04 Q 356.877 207.223 358.284 213.142 Q 359.69 219.062 366.048 228.744 Q 372.092 237.948 376.768 241.292 Q 381.445 244.637 386.391 243.442 Q 391.338 242.247 398.27 237.694 Z" transform="matrix(1, 0, 0, 1, 21.531099, 1.794258)" style="fill: rgb(51, 51, 51); white-space: pre;"/>
  <path d="M 306.019 205.802 L 343.763 288.076 L 282.675 316.101 L 274.923 299.205 L 315.216 280.72 L 308.06 265.123 L 273.097 281.163 L 265.345 264.266 L 300.309 248.226 L 292.974 232.239 L 252.682 250.724 L 244.931 233.827 Z" transform="matrix(1, 0, 0, 1, 21.531099, 1.794258)" style="fill: rgb(51, 51, 51); white-space: pre;"/>
  <path d="M 198.558 259.408 Q 203.904 265.488 209.721 272.453 Q 215.537 279.419 221.231 286.283 Q 226.924 293.147 231.762 299.138 Q 236.6 305.129 240.106 309.52 Q 243.611 313.912 245.06 315.773 L 245.525 315.411 Q 244.092 313.23 242.124 309.488 Q 240.157 305.745 238.146 301.553 Q 236.136 297.36 234.574 293.829 L 214.102 247.532 L 234.112 238.683 L 270.72 321.469 L 235.67 336.968 Q 230.774 330.847 225.363 324.092 Q 219.953 317.338 214.6 310.714 Q 209.248 304.09 204.7 298.049 Q 200.152 292.008 197.301 287.327 L 197.039 287.443 Q 198.583 292.702 200.028 300.037 Q 201.474 307.372 202.866 315.825 Q 204.259 324.278 205.549 332.854 Q 206.84 341.43 208.205 349.113 L 173.678 364.381 L 137.07 281.595 L 156.818 272.862 L 177.291 319.16 Q 178.853 322.691 180.601 326.999 Q 182.35 331.307 183.729 335.31 Q 185.108 339.313 185.888 341.783 L 186.469 341.682 Q 186.067 339.358 185.177 333.81 Q 184.287 328.262 183.147 320.557 Q 182.007 312.853 180.761 304.022 Q 179.514 295.192 178.304 286.268 Q 177.094 277.343 176.063 269.356 Z" transform="matrix(1, 0, 0, 1, 21.531099, 1.794258)" style="fill: rgb(51, 51, 51); white-space: pre;"/>
  <path d="M 141.649 329.012 Q 148.55 344.88 148.993 355.759 Q 149.436 366.637 142.352 374.552 Q 135.268 382.467 119.401 389.368 Q 107.467 394.557 98.63 395.75 Q 89.792 396.942 83.035 393.955 Q 76.278 390.968 70.812 383.599 Q 65.347 376.23 60.214 364.428 Q 55.024 352.494 53.361 343.472 Q 51.698 334.449 54.121 327.469 Q 56.543 320.49 63.442 314.839 Q 70.341 309.188 82.274 303.998 Q 94.207 298.809 103.045 297.616 Q 111.883 296.424 118.64 299.411 Q 125.397 302.398 130.928 309.738 Q 136.459 317.079 141.649 329.012 Z M 90.258 322.357 Q 81.866 326.007 78.582 329.93 Q 75.298 333.853 76.165 339.792 Q 77.032 345.73 81.196 355.303 Q 85.302 364.745 89.025 369.363 Q 92.749 373.981 97.886 374.32 Q 103.024 374.659 111.416 371.009 Q 119.678 367.416 122.999 363.398 Q 126.32 359.381 125.547 353.48 Q 124.774 347.579 120.667 338.137 Q 116.504 328.564 112.686 323.909 Q 108.869 319.254 103.694 319.009 Q 98.52 318.764 90.258 322.357 Z" transform="matrix(1, 0, 0, 1, 21.531099, 1.794258)" style="fill: rgb(51, 51, 51); white-space: pre;"/>
</svg>